<svg t="1731152986974" class="icon" viewBox="0 0 1024 1024" version="1.1"
    xmlns="http://www.w3.org/2000/svg" p-id="2631" width="20" height="20">
    <path d="M512.0512 768c3.456 0.042667 6.741333-0.554667 10.112-1.322667 1.450667-0.341333 2.858667-0.554667 4.266667-1.066666 6.954667-2.304 13.525333-5.717333 18.688-11.477334l382.762666-427.178666a42.461867 42.461867 0 0 0-3.754666-60.288c-17.834667-15.573333-45.312-13.909333-61.098667 3.712L512.0512 662.101333l-351.061333-391.722666c-15.786667-17.621333-43.264-19.285333-61.098667-3.712a42.461867 42.461867 0 0 0-3.754667 60.288l382.848 427.178666c5.162667 5.76 11.733333 9.173333 18.688 11.477334 1.408 0.512 2.816 0.725333 4.266667 1.066666 3.370667 0.768 6.656 1.365333 10.112 1.322667" fill="#515152" p-id="2632"></path>
</svg>