<?xml version="1.0" standalone="no"?><!DOCTYPE svg PUBLIC "-//W3C//DTD SVG 1.1//EN" "http://www.w3.org/Graphics/SVG/1.1/DTD/svg11.dtd"><svg t="1732811609962" class="icon" viewBox="0 0 1024 1024" version="1.1" xmlns="http://www.w3.org/2000/svg" p-id="2158" xmlns:xlink="http://www.w3.org/1999/xlink" width="200" height="200"><path d="M22.555066 112.77533C22.555066 63.154185 63.154185 22.555066 112.77533 22.555066h798.44934c49.621145 0 90.220264 40.599119 90.220264 90.220264v798.44934c0 49.621145-40.599119 90.220264-90.220264 90.220264H112.77533c-49.621145 0-90.220264-40.599119-90.220264-90.220264V112.77533z" fill="#F5F5FF" p-id="2159"></path><path d="M22.555066 112.77533C22.555066 63.154185 63.154185 22.555066 112.77533 22.555066h798.44934c49.621145 0 90.220264 40.599119 90.220264 90.220264v798.44934c0 49.621145-40.599119 90.220264-90.220264 90.220264H112.77533c-49.621145 0-90.220264-40.599119-90.220264-90.220264V112.77533z" fill="#F5F5FF" p-id="2160"></path><path d="M495.868617 496.098678m-110.880705 0a110.880705 110.880705 0 1 0 221.76141 0 110.880705 110.880705 0 1 0-221.76141 0Z" fill="#FF9FB0" p-id="2161"></path><path d="M495.868617 625.023436c-71.089057 0-128.924758-57.831189-128.924758-128.924758s57.8357-128.924758 128.924758-128.924757 128.924758 57.8357 128.924757 128.924757-57.8357 128.924758-128.924757 128.924758z m0-221.76141c-51.190978 0-92.836652 41.645674-92.836652 92.836652 0 51.186467 41.645674 92.836652 92.836652 92.836652s92.836652-41.645674 92.836652-92.836652c0-51.190978-41.650185-92.836652-92.836652-92.836652z" fill="#6E6E96" p-id="2162"></path><path d="M275.568775 268.351154m-110.880705 0a110.880705 110.880705 0 1 0 221.76141 0 110.880705 110.880705 0 1 0-221.76141 0Z" fill="#FFFFFF" p-id="2163"></path><path d="M275.568775 397.275912c-71.089057 0-128.924758-57.8357-128.924757-128.924758 0-71.089057 57.8357-128.924758 128.924757-128.924758s128.924758 57.8357 128.924758 128.924758c0 71.089057-57.8357 128.924758-128.924758 128.924758z m0-221.76141c-51.190978 0-92.836652 41.645674-92.836652 92.836652s41.645674 92.836652 92.836652 92.836652 92.836652-41.645674 92.836652-92.836652-41.645674-92.836652-92.836652-92.836652z" fill="#6E6E96" p-id="2164"></path><path d="M726.467101 730.42326m-110.880705 0a110.880705 110.880705 0 1 0 221.76141 0 110.880705 110.880705 0 1 0-221.76141 0Z" fill="#FFFFFF" p-id="2165"></path><path d="M726.467101 859.348018c-71.089057 0-128.924758-57.8357-128.924757-128.924758s57.8357-128.924758 128.924757-128.924758 128.924758 57.8357 128.924758 128.924758-57.8357 128.924758-128.924758 128.924758z m0-221.76141c-51.190978 0-92.836652 41.645674-92.836652 92.836652s41.645674 92.836652 92.836652 92.836652 92.836652-41.645674 92.836652-92.836652-41.645674-92.836652-92.836652-92.836652z" fill="#6E6E96" p-id="2166"></path><path d="M906.713656 18.044053H108.264317C58.643172 18.044053 18.044053 58.643172 18.044053 108.264317v798.449339c0 49.621145 40.599119 90.220264 90.220264 90.220265h798.449339c49.621145 0 90.220264-40.599119 90.220265-90.220265V108.264317c0-49.621145-40.599119-90.220264-90.220265-90.220264z m83.453745 889.801868c0 45.27704-37.044441 82.32148-82.32148 82.32148H179.308264c-45.27704 0-82.32148-37.044441-82.32148-82.32148V179.308264c0-45.27704 37.044441-82.32148 82.32148-82.32148h728.537657c45.27704 0 82.32148 37.044441 82.32148 82.32148v728.537657z" fill="#FFFFFF" p-id="2167"></path><path d="M273.710238 159.333498c-61.232493 0-110.876194 49.639189-110.876194 110.880705 0 8.41304 0.965357 16.600529 2.742696 24.481268 11.151225-49.449727 55.314044-86.394925 108.133498-86.394925s96.986784 36.945198 108.138009 86.394925c1.777339-7.88074 2.742696-16.068229 2.742696-24.481268 0-61.241515-49.6437-110.880705-110.880705-110.880705z m450.898326 462.076617c-61.232493 0-110.880705 49.639189-110.880705 110.876193 0 8.41304 0.969868 16.60504 2.742696 24.481269 11.151225-49.449727 55.314044-86.394925 108.138009-86.394925 52.819454 0 96.982273 36.945198 108.133498 86.394925a110.835595 110.835595 0 0 0 2.742696-24.481269c0-61.237004-49.6437-110.876194-110.876194-110.876193z m-230.602996-234.329093c-61.237004 0-110.876194 49.6437-110.876194 110.880705 0 8.417551 0.969868 16.600529 2.747207 24.476758 11.146714-49.445216 55.309533-86.390414 108.128987-86.390415s96.986784 36.945198 108.133498 86.390415c1.78185-7.876229 2.742696-16.068229 2.742696-24.476758 0.009022-61.237004-49.634678-110.880705-110.876194-110.880705z" fill="#6E6E96" opacity=".15" p-id="2168"></path><path d="M906.713656 999.189427H108.264317c-50.992493 0-92.475771-41.483278-92.475771-92.475771V108.264317C15.788546 57.271824 57.271824 15.788546 108.264317 15.788546h798.449339c50.992493 0 92.475771 41.483278 92.475771 92.475771v798.449339c0 50.992493-41.483278 92.475771-92.475771 92.475771zM108.264317 20.299559C59.761903 20.299559 20.299559 59.761903 20.299559 108.264317v798.449339c0 48.502414 39.462344 87.964758 87.964758 87.964758h798.449339c48.502414 0 87.964758-39.462344 87.964758-87.964758V108.264317c0-48.502414-39.462344-87.964758-87.964758-87.964758H108.264317z" fill="#6E6E96" p-id="2169"></path><path d="M906.713656 1014.977974H108.264317c-59.698749 0-108.264317-48.570079-108.264317-108.264318V108.264317C0 48.565568 48.565568 0 108.264317 0h798.449339c59.694238 0 108.264317 48.565568 108.264318 108.264317v798.449339c0 59.694238-48.570079 108.264317-108.264318 108.264318zM108.264317 36.088106C68.468159 36.088106 36.088106 68.468159 36.088106 108.264317v798.449339c0 39.796159 32.380053 72.176211 72.176211 72.176212h798.449339c39.796159 0 72.176211-32.380053 72.176212-72.176212V108.264317c0-39.796159-32.380053-72.176211-72.176212-72.176211H108.264317z" fill="#6E6E96" p-id="2170"></path><path d="M269.97963 724.834115m-110.880705 0a110.880705 110.880705 0 1 0 221.76141 0 110.880705 110.880705 0 1 0-221.76141 0Z" fill="#FFFFFF" p-id="2171"></path><path d="M269.97963 853.758872c-71.089057 0-128.924758-57.831189-128.924758-128.920246s57.8357-128.924758 128.924758-128.924758 128.924758 57.8357 128.924758 128.924758-57.8357 128.920247-128.924758 128.920246z m0-221.756898c-51.190978 0-92.836652 41.645674-92.836652 92.836652s41.645674 92.832141 92.836652 92.832141 92.836652-41.641163 92.836652-92.832141-41.645674-92.836652-92.836652-92.836652z" fill="#6E6E96" p-id="2172"></path><path d="M732.060758 273.9403m-110.880705 0a110.880705 110.880705 0 1 0 221.76141 0 110.880705 110.880705 0 1 0-221.76141 0Z" fill="#FFFFFF" p-id="2173"></path><path d="M732.060758 402.865057c-71.089057 0-128.924758-57.8357-128.924758-128.924757s57.8357-128.924758 128.924758-128.924758 128.924758 57.8357 128.924757 128.924758-57.8357 128.924758-128.924757 128.924757z m0-221.761409c-51.190978 0-92.836652 41.645674-92.836652 92.836652s41.645674 92.836652 92.836652 92.836652 92.836652-41.645674 92.836652-92.836652-41.645674-92.836652-92.836652-92.836652z" fill="#6E6E96" p-id="2174"></path><path d="M609.645392 274.292159c0 8.417551 0.969868 16.60504 2.738185 24.481268 11.155736-49.449727 55.323066-86.394925 108.14252-86.394925s96.977762 36.945198 108.138009 86.394925c1.777339-7.88074 2.742696-16.068229 2.742696-24.481268 0-61.237004-49.652722-110.880705-110.880705-110.880705-61.232493 0-110.880705 49.6437-110.880705 110.880705zM158.751577 736.359753c0 8.422062 0.969868 16.609551 2.742696 24.490291 11.151225-49.454238 55.314044-86.390414 108.133498-86.390414s96.986784 36.936176 108.133498 86.390414c1.777339-7.88074 2.747207-16.068229 2.747207-24.490291 0-61.232493-49.639189-110.871683-110.880705-110.871683s-110.876194 49.639189-110.876194 110.871683z" fill="#6E6E96" opacity=".15" p-id="2175"></path><path d="M906.713656 18.044053H108.264317C58.643172 18.044053 18.044053 58.643172 18.044053 108.264317v798.449339c0 49.621145 40.599119 90.220264 90.220264 90.220265h798.449339c49.621145 0 90.220264-40.599119 90.220265-90.220265V108.264317c0-49.621145-40.599119-90.220264-90.220265-90.220264z m15.784036 818.040669c0 45.042467-36.859489 81.901956-81.901956 81.901956H115.734555c-45.046978 0-81.906467-36.859489-81.906467-81.901956V111.223542c0-45.046978 36.854978-81.906467 81.906467-81.906467h724.861181c45.042467 0 81.901956 36.854978 81.901956 81.906467v724.86118z" fill="#6E6E96" opacity=".15" p-id="2176"></path></svg>