<?xml version="1.0" standalone="no"?><!DOCTYPE svg PUBLIC "-//W3C//DTD SVG 1.1//EN" "http://www.w3.org/Graphics/SVG/1.1/DTD/svg11.dtd"><svg t="1731491320578" class="icon" viewBox="0 0 1084 1024" version="1.1" xmlns="http://www.w3.org/2000/svg" p-id="3037" xmlns:xlink="http://www.w3.org/1999/xlink" width="20" height="20"><path d="M134.790539 61.85273C72.050828 101.950392 32.460012 164.388617 23.306193 237.662868l-0.034955 0.2709 0.030585-0.244684-1.118557 11.543862-0.515585 3.154682-1.520539 12.531338a551.208496 551.208496 0 0 0-0.485 23.061508c0 195.275658 103.466562 366.878097 192.208364 478.109021 95.492471 117.282494 196.656378 195.297505 258.098388 199.181871 54.118954 5.889904 139.824048-40.407887 277.721205-150.004668 155.479482-127.253385 253.383843-237.828904 299.568031-338.201955l0.297116-0.685991-0.087387 0.166036 3.281393-8.865441 0.41509-1.214684 3.041078-7.100218a130.054148 130.054148 0 0 0 10.434043-51.340038c0-20.164619-4.461122-41.019598-13.378995-61.900793-30.62051-71.631369-111.689707-139.387111-211.599606-176.867524l-0.489369-0.179144c-38.686357-13.326563-164.904203-49.483058-252.890104 7.580848-56.69688-84.936085-139.845895-119.589519-221.937523-144.049223-76.603706-24.464074-162.553484-13.579986-229.553327 29.244159z m919.580917 397.118472z" fill="#FF87BB" p-id="3038"></path><path d="M1022.335272 336.602768c1.048648 9.407243 1.389458 18.744576 0.900089 28.038214-3.914951 87.461578-83.293204 162.225782-188.843953 228.661976-106.962054 64.430656-268.169774 179.170179-412.385033 183.050175-109.692907 3.526078-210.33249-33.762083-284.91755-133.501576 126.724692 188.608007 276.388549 300.586092 337.384884 306.021582 54.774359 8.362965 150.074578-51.956119 266.605541-139.618687 113.131597-88.379145 247.480831-204.106145 301.818253-323.03589 1.302071-3.119727 2.232745-6.200129 3.228961-9.245576 1.118557-2.481799 2.219637-5.007292 3.172159-7.545893 16.393857-42.880948 4.614049-87.58829-26.963351-132.824325z" fill="#C91866" opacity=".27" p-id="3039"></path><path d="M138.91522 343.781634a21.855563 21.855563 0 0 1-21.47106-17.940612c-12.719221-69.944794-2.494907-121.962084 30.380195-154.60561 46.420133-46.079323 118.82488-33.010552 121.887805-32.438165a21.846825 21.846825 0 0 1-8.061479 42.946488c-1.035539-0.183513-53.419856-9.131973-83.201447 20.658358-21.921104 21.925473-27.981413 60.825929-18.019261 115.622135a21.846825 21.846825 0 0 1-21.514753 25.757406z" fill="#FFFFFF" opacity=".7" p-id="3040"></path><path d="M192.636562 485.785995a21.846825 21.846825 0 0 1-18.906242-10.862241c-20.745745-35.658387-30.078708-66.838176-30.467582-68.148985a21.846825 21.846825 0 0 1 41.889102-12.413366c0.083018 0.270901 8.376073 27.710513 26.342901 58.588814a21.846825 21.846825 0 0 1-18.858179 32.835778z" fill="#FFFFFF" opacity=".49" p-id="3041"></path><path d="M479.376137 987.611929c-3.705221 0-7.375488-0.187883-10.905935-0.55491-67.091599-4.522293-170.549422-83.232033-270.153466-205.565512C108.784079 669.273107 2.184682 493.445492 2.184682 292.349839c0-7.838641 0.170405-15.843317 0.498108-23.791192l0.113604-1.37635 2.044862-15.838948 1.118558-11.460844C15.773407 161.338801 58.182464 94.439454 125.378927 51.492966 171.274737 22.161419 225.157745 6.658912 281.207959 6.658912a290.453535 290.453535 0 0 1 88.449054 13.667374c80.02055 23.839255 162.10344 57.238681 221.666623 137.508284 32.058031-16.909442 70.3861-25.464659 114.2152-25.464659 61.424532 0 117.894205 17.167235 139.32594 24.547092l0.799594 0.288378c104.357912 39.145141 189.245935 110.553672 221.666622 186.410217 9.813594 22.965382 14.7903 46.105539 14.790301 68.769435 0 20.208313-3.980491 39.787437-11.832241 58.195572l-3.006123 7.139542-3.421213 9.249946-8.952828-3.311979 8.673189 4.050402-0.297117 0.68599c-47.47315 103.2044-147.037869 215.864106-304.52289 344.760372-134.462837 106.870297-220.565543 154.457051-279.385933 154.457051zM37.580908 270.699636a538.187789 538.187789 0 0 0-0.441306 21.650203c0 190.980573 102.4485 359.480762 188.393909 467.211825 90.895899 111.632905 189.612961 189.101746 245.536463 192.636562l0.786486 0.06991c2.403151 0.262162 4.928644 0.393243 7.515307 0.393242 49.701526 0 131.504777-46.616755 257.434244-146.705797 152.892818-125.138612 249.259162-233.612466 294.390333-331.446917l3.901843-10.565124 3.023601-7.069633a112.694661 112.694661 0 0 0 9.031477-44.484504c0-17.918766-4.028554-36.436134-11.976429-55.032152-28.802854-67.379977-106.075073-131.513516-201.66367-167.368524l-0.349549-0.126712c-19.456782-6.698236-71.491549-22.532815-127.63352-22.532815-43.802884 0-80.732756 9.542693-109.745339 28.361548l-14.471337 9.385396-9.573279-14.344625c-53.983504-80.872576-133.982207-113.638444-212.390461-137.001438a255.979246 255.979246 0 0 0-78.141722-12.11188c-49.365085 0-96.742109 13.601833-137.001438 39.333023-58.27859 37.248836-95.055534 95.22594-103.55395 163.252583l-1.677836 15.013138-1.393827 11.482691z" fill="#6E6E96" p-id="3042"></path></svg>