<?xml version="1.0" standalone="no"?><!DOCTYPE svg PUBLIC "-//W3C//DTD SVG 1.1//EN" "http://www.w3.org/Graphics/SVG/1.1/DTD/svg11.dtd"><svg t="1735645727165" class="icon" viewBox="0 0 1024 1024" version="1.1" xmlns="http://www.w3.org/2000/svg" p-id="8090" xmlns:xlink="http://www.w3.org/1999/xlink" width="200" height="200"><path d="M767.6 78c4.9 4.6 9.5 9.5 14.7 14.7 2.5 5.8 5.5 11.7 7.4 17.5 7.1 24.2 0.6 45.4-17.8 63.8 12.9 23.3 25.5 46.6 38.4 70 46.9 86.2 94.5 172.5 141.8 258.4 7.7 14.1 6.8 20.3-4.9 31.9L533.5 947.7c-11 11-17.5 12-31.3 4.3-105.9-58-212-116.3-318.2-174.6-3.4-1.5-6.8-3.4-10.1-4.9-24.9 24.5-52.2 25.8-81.3 10.4l-14.7-14.7c-1.2-2.1-2.1-4.6-3.4-6.8-14.7-27.9-7.1-61.4 19-79.5 24.9-17.5 59.2-13.5 80.1 9.8 11 12.3 15.3 27.3 15.3 44.2 3.4-0.9 6.4-1.5 9.5-2.1 66-16 132-31.6 197.9-47.6 17.2-4.6 19.9-9.5 15-26.7-21.5-74.6-43.3-149.1-65.1-223.7-7.7-26.7-15.6-53.4-23.3-80.1-48.5 9.2-81.3-10.1-85.3-50.6-3.7-35.3 24.2-66.3 59.8-66.9 18.1-0.3 33.4 6.1 45.7 19.6 17.5 19 19.3 41.7 11.7 65.7 104 30.4 206.8 60.1 309.6 90.2 10.4 3.1 16.9-0.9 19.6-12 4.9-19.3 9.5-39 14.1-58.3 12.3-51.2 24.9-102.5 37.1-154-3.1-0.3-6.1-0.3-8.9-0.6-25.2-1.8-45.4-18.1-53.1-41.4-7.4-23-0.6-49.1 17.2-64.4 19.6-16.9 45.7-20.3 68.4-8.9l8.8 3.9z m0 0" fill="#FF6164" p-id="8091"></path><path d="M546.2 614.7c-29.3-117.1-151.8-210.9-216-234.1 5.4 18.4 10.8 36.8 16.1 55.3 21.8 74.6 43.6 149.1 65.1 223.7 4.9 17.2 2.2 22.1-15 26.7-66 16-131.9 31.6-197.9 47.6-3.1 0.6-6.1 1.2-9.5 2.1 0-16.9-4.3-31.9-15.3-44.2-20.9-23.3-55.2-27.3-80.1-9.8-26.1 18.1-33.8 51.6-19 79.5 1.2 2.1 2.2 4.6 3.4 6.8L92.7 783c29.2 15.3 56.5 14.1 81.3-10.4 3.4 1.5 6.8 3.4 10.1 4.9 65.7 36.1 131.3 72 196.9 108 114.2-61.3 198.9-136.2 165.2-270.8z" fill="#FF7E82" p-id="8092"></path></svg>