<?xml version="1.0" standalone="no"?><!DOCTYPE svg PUBLIC "-//W3C//DTD SVG 1.1//EN" "http://www.w3.org/Graphics/SVG/1.1/DTD/svg11.dtd"><svg t="1735645681714" class="icon" viewBox="0 0 1024 1024" version="1.1" xmlns="http://www.w3.org/2000/svg" p-id="5798" xmlns:xlink="http://www.w3.org/1999/xlink" width="200" height="200"><path d="M767.6 77.6c4.9 4.6 9.5 9.5 14.7 14.7 2.5 5.8 5.5 11.7 7.4 17.5 7.1 24.3 0.6 45.4-17.8 63.9 12.9 23.3 25.5 46.7 38.4 70C857.2 330 904.8 416.3 952 502.2c7.7 14.1 6.8 20.3-4.9 31.9L533.5 947.7c-11 11.1-17.5 12-31.3 4.3-105.9-58-212-116.4-318.2-174.7-3.4-1.5-6.8-3.4-10.1-4.9-24.9 24.6-52.2 25.8-81.3 10.4l-14.7-14.7c-1.2-2.1-2.1-4.6-3.4-6.8-14.7-27.9-7.1-61.4 19-79.5 24.9-17.5 59.2-13.5 80.1 9.8 11 12.3 15.3 27.3 15.3 44.2 3.4-0.9 6.4-1.5 9.5-2.1 66-16 132-31.6 197.9-47.6 17.2-4.6 19.9-9.5 15-26.7-21.5-74.6-43.3-149.2-65.1-223.8-7.7-26.7-15.6-53.4-23.3-80.1-48.5 9.2-81.3-10.1-85.3-50.7-3.7-35.3 24.2-66.3 59.8-66.9 18.1-0.3 33.4 6.1 45.7 19.6 17.5 19 19.3 41.8 11.7 65.7 104 30.4 206.8 60.2 309.6 90.3 10.4 3.1 16.9-0.9 19.6-12 4.9-19.3 9.5-39 14.1-58.3 12.3-51.3 24.9-102.5 37.1-154.1-3.1-0.3-6.1-0.3-8.9-0.6-25.2-1.8-45.4-18.1-53.1-41.4-7.4-23-0.6-49.1 17.2-64.5 19.6-16.9 45.7-20.3 68.4-8.9l8.8 3.9z m0 0" fill="#FFC108" p-id="5799"></path><path d="M549.5 616.5C520 498.6 396.7 404.2 332.1 380.8c5.4 18.6 10.9 37.1 16.2 55.7 21.9 75.1 43.9 150.2 65.5 225.2 4.9 17.3 2.2 22.2-15.1 26.9-66.4 16.1-132.8 31.8-199.2 47.9-3.1 0.6-6.2 1.2-9.6 2.2 0-17-4.3-32.1-15.4-44.5-21-23.5-55.6-27.5-80.6-9.9-26.3 18.2-34 51.9-19.2 80 1.2 2.2 2.2 4.6 3.4 6.8l14.8 14.8c29.3 15.5 56.8 14.2 81.8-10.5 3.4 1.5 6.8 3.4 10.2 4.9C251 816.7 317 852.9 383 889.1c115.2-61.6 200.4-137 166.5-272.6z" fill="#FED309" p-id="5800"></path></svg>