<?xml version="1.0" standalone="no"?><!DOCTYPE svg PUBLIC "-//W3C//DTD SVG 1.1//EN" "http://www.w3.org/Graphics/SVG/1.1/DTD/svg11.dtd"><svg t="1731491718442" class="icon" viewBox="0 0 1024 1024" version="1.1" xmlns="http://www.w3.org/2000/svg" p-id="18390" xmlns:xlink="http://www.w3.org/1999/xlink" width="20" height="20"><path d="M443.904 623.104a281.6 278.016 90 1 0 556.032 0 281.6 278.016 90 1 0-556.032 0Z" fill="#E09B40" p-id="18391"></path><path d="M721.92 604.672m-278.016 0a278.016 278.016 0 1 0 556.032 0 278.016 278.016 0 1 0-556.032 0Z" fill="#FFD151" p-id="18392"></path><path d="M562.688 740.352l159.744-332.288 33.792-79.36c-11.264-1.536-23.04-2.56-34.304-2.56-153.6 0-278.016 124.416-278.016 278.016 0 71.168 27.136 135.68 70.656 184.832l48.128-48.64z" fill="#FFDD99" p-id="18393"></path><path d="M721.92 604.672m-231.424 0a231.424 231.424 0 1 0 462.848 0 231.424 231.424 0 1 0-462.848 0Z" fill="#D39548" p-id="18394"></path><path d="M491.52 612.352a230.912 223.744 0 1 0 461.824 0 230.912 223.744 0 1 0-461.824 0Z" fill="#E6B141" p-id="18395"></path><path d="M662.016 686.592l33.28 10.752 33.28 6.144 40.448-8.704v13.824l-37.376 12.8-34.816-8.704zM668.672 549.376l33.792-10.752 32.768-6.144 40.96 8.192V527.36l-37.376-13.312-35.328 9.216z" fill="#D39548" p-id="18396"></path><path d="M687.104 902.144c2.048 0 4.096 0.512 5.632 0.512v-21.504c-1.536 0-3.584-0.512-5.632-0.512v21.504zM697.344 903.168c2.048 0 4.096 0.512 5.632 0.512v-21.504c-1.536 0-3.584 0-5.632-0.512v21.504zM707.584 904.192c2.048 0 3.584 0 5.632 0.512v-22.016h-5.632v21.504zM717.312 904.192s0.512 0.512 0 0c2.048 0.512 3.584 0.512 5.632 0.512v-22.016h-5.632v21.504zM727.552 882.688v22.016h5.632V882.176c-1.536 0-3.584 0.512-5.632 0.512zM843.264 876.544c1.536-1.024 3.584-1.536 5.12-2.56l-9.728-16.896c-1.536 1.024-3.584 1.536-5.12 2.56l9.728 16.896zM851.968 871.936c1.536-1.024 3.584-2.048 5.12-3.072l-9.728-15.872c-1.536 1.024-3.584 1.536-5.12 2.56l9.728 16.384zM860.672 866.816c1.536-1.024 3.584-2.048 5.12-3.072l-9.216-15.872c-1.536 1.024-3.584 2.048-5.12 2.56l9.216 16.384zM869.376 861.696l4.608-3.072-9.216-15.36c-1.536 1.024-3.072 2.048-5.12 3.072l9.728 15.36zM868.864 841.216l8.704 14.848 4.608-3.072-8.704-14.848c-1.024 1.024-2.56 2.048-4.608 3.072zM559.104 850.944l4.608 3.072 8.704-14.848-4.608-3.072-8.704 14.848zM567.296 857.088l4.608 3.072 9.216-15.36c-1.536-1.024-3.072-2.048-5.12-3.072l-8.704 15.36zM576 862.72l4.608 3.072 9.728-16.384c-1.536-1.024-3.584-2.048-5.12-2.56l-9.216 15.872zM584.704 867.84c1.536 1.024 3.584 1.536 5.12 2.56l9.728-16.384c-1.536-1.024-3.584-2.048-5.12-2.56l-9.728 16.384zM593.408 872.448c1.536 1.024 3.584 2.048 5.12 2.56l9.728-16.896c-1.536-1.024-3.584-1.536-5.12-2.56l-9.728 16.896z" fill="#EFC04B" p-id="18397"></path><path d="M27.648 408.064a281.6 278.016 90 1 0 556.032 0 281.6 278.016 90 1 0-556.032 0Z" fill="#E09B40" p-id="18398"></path><path d="M305.664 389.632m-278.016 0a278.016 278.016 0 1 0 556.032 0 278.016 278.016 0 1 0-556.032 0Z" fill="#FFD151" p-id="18399"></path><path d="M146.432 525.312l159.744-332.288 33.792-79.36c-11.264-1.536-23.04-2.56-34.304-2.56-153.6 0-278.016 124.416-278.016 278.016 0 71.168 27.136 135.68 70.656 184.832l48.128-48.64z" fill="#FFDD99" p-id="18400"></path><path d="M305.664 389.632m-231.424 0a231.424 231.424 0 1 0 462.848 0 231.424 231.424 0 1 0-462.848 0Z" fill="#D39548" p-id="18401"></path><path d="M75.264 397.312a230.912 223.744 0 1 0 461.824 0 230.912 223.744 0 1 0-461.824 0Z" fill="#E6B141" p-id="18402"></path><path d="M245.248 471.552l33.792 10.752 32.768 6.144 40.96-8.192v13.312l-37.376 12.8-35.328-8.704zM252.416 334.336l33.28-10.752 33.28-6.144 40.448 8.192V312.32l-37.376-12.8-34.816 8.704z" fill="#D39548" p-id="18403"></path><path d="M270.848 687.104c2.048 0 4.096 0.512 5.632 0.512v-21.504c-1.536 0-3.584-0.512-5.632-0.512v21.504zM281.088 688.128c2.048 0 4.096 0.512 5.632 0.512v-21.504c-1.536 0-3.584 0-5.632-0.512v21.504zM290.816 689.152c2.048 0 3.584 0 5.632 0.512v-22.016h-5.632v21.504zM301.056 689.152s0 0.512 0 0c2.048 0.512 3.584 0.512 5.632 0.512v-22.016h-5.632v21.504zM311.296 667.648v22.016h5.632V667.136c-2.048 0-3.584 0.512-5.632 0.512zM426.496 661.504c1.536-1.024 3.584-1.536 5.12-2.56l-9.728-16.896c-1.536 1.024-3.584 1.536-5.12 2.56l9.728 16.896zM435.712 656.896c1.536-1.024 3.584-2.048 5.12-3.072l-9.728-15.872c-1.536 1.024-3.584 1.536-5.12 2.56l9.728 16.384zM444.416 651.776c1.536-1.024 3.584-2.048 5.12-3.072l-9.216-15.872c-1.536 1.024-3.584 2.048-5.12 2.56l9.216 16.384zM453.12 646.656l4.608-3.072-9.216-15.36c-1.536 1.024-3.072 2.048-5.12 3.072l9.728 15.36zM452.608 626.176l8.704 14.848 4.608-3.072-8.704-14.848-4.608 3.072zM142.848 635.904l4.608 3.072 8.704-14.848-4.608-3.072-8.704 14.848zM151.04 642.048l4.608 3.072 9.216-15.36c-1.536-1.024-3.072-2.048-5.12-3.072l-8.704 15.36zM159.232 647.68l4.608 3.072 9.728-16.384c-1.536-1.024-3.584-2.048-5.12-2.56l-9.216 15.872zM167.936 652.8c1.536 1.024 3.584 1.536 5.12 2.56l9.728-16.384c-1.536-1.024-3.584-2.048-5.12-2.56l-9.728 16.384zM177.152 657.408c1.536 1.024 3.584 2.048 5.12 2.56l9.728-16.896c-1.536-1.024-3.584-1.536-5.12-2.56l-9.728 16.896z" fill="#EFC04B" p-id="18404"></path></svg>