<?xml version="1.0" standalone="no"?>
<!DOCTYPE svg PUBLIC "-//W3C//DTD SVG 1.1//EN" "http://www.w3.org/Graphics/SVG/1.1/DTD/svg11.dtd">
<svg t="1711501518402" class="icon" viewBox="0 0 1024 1024" version="1.1"
    xmlns="http://www.w3.org/2000/svg" p-id="5387" xmlns:xlink="http://www.w3.org/1999/xlink"
    width="200" height="200">
    <path d="M453.7 570m-378.2 0a378.2 378.2 0 1 0 756.4 0 378.2 378.2 0 1 0-756.4 0Z"
        fill="#2c2c2c" p-id="5388"></path>
    <path d="M453.7 570m-213 0a213 213 0 1 0 426 0 213 213 0 1 0-426 0Z" fill="#cdcdcd" p-id="5389"></path>
    <path d="M453.7 570m-150.6 0a150.6 150.6 0 1 0 301.2 0 150.6 150.6 0 1 0-301.2 0Z"
        fill="#d81e06" p-id="5390"></path>
    <path
        d="M453.7 732c-89.3 0-162-72.7-162-162s72.7-162 162-162 162 72.7 162 162-72.7 162-162 162z m0-301.3c-76.8 0-139.3 62.5-139.3 139.3s62.5 139.3 139.3 139.3S593.1 646.9 593.1 570s-62.5-139.3-139.4-139.3z"
        fill="#d81e06" p-id="5391"></path>
    <path d="M453.7 570m-47.8 0a47.8 47.8 0 1 0 95.6 0 47.8 47.8 0 1 0-95.6 0Z" fill="#ffffff"
        p-id="5392"></path>
    <path
        d="M453.7 629.2c-32.6 0-59.2-26.5-59.2-59.2 0-32.6 26.5-59.2 59.2-59.2 32.6 0 59.2 26.5 59.2 59.2 0 32.6-26.5 59.2-59.2 59.2z m0-95.7c-20.1 0-36.5 16.4-36.5 36.5s16.4 36.5 36.5 36.5 36.5-16.4 36.5-36.5c0.1-20.1-16.3-36.5-36.5-36.5z"
        fill="#2D415C" p-id="5393"></path>
    <path
        d="M581.6 834.2l-15.4-26.6c-0.5-0.9-0.2-2.1 0.7-2.6l75.5-43.6c0.9-0.5 2.1-0.2 2.6 0.7l15.4 26.6c0.5 0.9 0.2 2.1-0.7 2.6l-75.5 43.6c-0.9 0.5-2.1 0.2-2.6-0.7z"
        fill="#707070" p-id="5394"></path>
    <path d="M869 220.6m-80.1 0a80.1 80.1 0 1 0 160.2 0 80.1 80.1 0 1 0-160.2 0Z" fill="#2c2c2c"
        p-id="5395"></path>
    <path
        d="M869 129.2c-50.4 0-91.4 41-91.4 91.4 0 38 23.4 70.7 56.5 84.5-4.1 17.1-13.4 55.4-25.4 104.5-61.3-135-197.3-229-354.9-229C239 180.5 64.2 355.2 64.2 570S239 959.6 453.7 959.6c214.8 0 389.5-174.7 389.5-389.5 0-43.3-7.1-85-20.2-124 15.2-61.8 27.6-113.4 32.8-135 4.3 0.6 8.6 0.9 13.1 0.9 50.4 0 91.4-41 91.4-91.4 0.1-50.4-40.9-91.4-91.3-91.4zM453.7 936.9C251.4 936.9 86.8 772.3 86.8 570s164.6-366.9 366.9-366.9c159.2 0 295.1 101.9 345.7 244-23.9 97.3-51.9 209.2-61.7 239.5-13.8 42.3-64.4 66-81.6 72.9-6.1-7.3-16.7-9.4-25.2-4.5L567 791.8c-9.5 5.5-12.8 17.7-7.3 27.1l8.7 15.1c3.7 6.4 10.4 9.9 17.2 9.9 3.4 0 6.8-0.9 9.9-2.7l63.9-36.9c4.6-2.7 7.9-6.9 9.3-12.1 1.2-4.4 0.8-9-1-13.2 22.5-9.4 75.5-36.3 91.5-85.6 8.8-27.2 31.3-115.9 52.8-202.8 5.6 25.5 8.6 52 8.6 79.2 0.1 202.5-164.5 367.1-366.9 367.1z m192.2-150.7l-59.2 34.2-6-10.3 59.2-34.2 6 10.3zM869 289.3c-37.9 0-68.8-30.9-68.8-68.8s30.9-68.8 68.8-68.8 68.8 30.9 68.8 68.8-30.9 68.8-68.8 68.8z"
        fill="#707070" p-id="5396"></path>
    <path d="M869 220.6m-28.8 0a28.8 28.8 0 1 0 57.6 0 28.8 28.8 0 1 0-57.6 0Z" fill="#ffffff"
        p-id="5397"></path>
    <path
        d="M869 260.6c-22.1 0-40.1-18-40.1-40.1s18-40.1 40.1-40.1 40.1 18 40.1 40.1-18 40.1-40.1 40.1z m0-57.5c-9.6 0-17.4 7.8-17.4 17.4S859.3 238 869 238c9.6 0 17.4-7.8 17.4-17.4s-7.8-17.5-17.4-17.5z"
        fill="#d81e06" p-id="5398"></path>
</svg>